<svg xmlns="http://www.w3.org/2000/svg" width="300" height="300" viewBox="0 0 300 300" version="1.1">
	<path d="M 129 13 C 129 13.550, 129.702 14, 130.559 14 C 131.416 14, 131.840 13.550, 131.500 13 C 131.160 12.450, 130.459 12, 129.941 12 C 129.423 12, 129 12.450, 129 13 M 149.394 13.750 C 148.100 15.044, 145.801 15.546, 140.572 15.678 C 136.682 15.776, 133.275 15.940, 133 16.043 C 132.725 16.146, 131.782 16.162, 130.904 16.078 C 129.572 15.952, 129.203 17.645, 128.671 26.336 C 127.894 39.048, 127.566 40, 123.974 40 C 122.427 40, 119.806 40.778, 118.148 41.730 C 115.200 43.422, 115.088 43.408, 113.067 41.077 C 110.690 38.337, 110.586 37.814, 112.113 36.287 C 113.702 34.698, 112.305 33, 109.410 33 C 107.958 33, 106.681 32.277, 106.317 31.250 C 105.290 28.356, 102.808 26, 100.786 26 C 99.739 26, 99.160 25.550, 99.500 25 C 99.840 24.450, 100.991 24, 102.059 24 C 103.127 24, 104 23.550, 104 23 C 104 21.560, 102.283 21.768, 99.586 23.536 C 97.450 24.935, 97.183 24.920, 96.587 23.365 C 96.056 21.981, 95.588 22.305, 94.114 25.079 C 91.962 29.131, 86.676 33, 83.293 33 C 81.940 33, 81.153 33.439, 81.500 34 C 81.840 34.550, 81.668 35, 81.118 35 C 80.568 35, 79.822 34.521, 79.460 33.935 C 78.651 32.627, 75 35.673, 75 37.655 C 75 38.395, 74.525 39, 73.944 39 C 71.869 39, 67 45.432, 67 48.173 C 67 49.726, 66.250 51.320, 65.258 51.875 C 64.284 52.420, 63.904 53.214, 64.395 53.675 C 64.878 54.129, 65.476 53.935, 65.722 53.244 C 65.969 52.553, 66.554 52.224, 67.022 52.514 C 68.169 53.222, 73 63.522, 73 65.258 C 73 67.118, 68.230 71.181, 67.477 69.962 C 66.221 67.931, 64.988 69.112, 65.610 71.750 C 66.143 74.011, 66.022 74.278, 64.929 73.250 C 63.130 71.558, 62 71.677, 62 73.559 C 62 74.416, 61.549 74.839, 60.997 74.498 C 60.335 74.089, 60.362 73.192, 61.078 71.854 C 61.674 70.740, 61.901 69.567, 61.581 69.248 C 61.261 68.928, 61 69.161, 61 69.766 C 61 70.371, 60.212 71.111, 59.250 71.411 C 56.992 72.115, 49.423 69.444, 49.750 68.058 C 50.069 66.710, 49.419 66.721, 47.204 68.104 C 45.868 68.939, 44.532 68.831, 41.740 67.665 C 39.564 66.755, 37.805 66.507, 37.463 67.060 C 37.143 67.577, 37.835 68, 39 68 C 40.247 68, 40.847 68.439, 40.458 69.068 C 40.095 69.656, 39.118 69.876, 38.288 69.557 C 37.237 69.154, 36.954 69.437, 37.357 70.489 C 37.677 71.322, 37.391 72.014, 36.719 72.032 C 36.015 72.050, 36.245 72.629, 37.261 73.400 C 38.761 74.538, 38.812 74.911, 37.609 75.909 C 36.832 76.554, 35.919 78.189, 35.579 79.541 C 35.240 80.893, 34.295 82, 33.481 82 C 32.666 82, 32 82.675, 32 83.500 C 32 84.325, 31.600 85, 31.111 85 C 30.622 85, 30.285 85.739, 30.361 86.642 C 30.438 87.546, 29.866 88.507, 29.091 88.779 C 28.104 89.125, 27.876 88.767, 28.329 87.585 C 28.721 86.563, 28.576 86.144, 27.962 86.523 C 27.404 86.869, 27.030 87.679, 27.131 88.325 C 27.233 88.971, 27.056 90.175, 26.739 91 C 24.379 97.138, 24.129 104.272, 26.201 106.344 C 27.060 107.203, 27.980 107.686, 28.248 107.419 C 28.515 107.152, 30.323 108.523, 32.267 110.467 C 34.210 112.410, 36.572 114, 37.517 114 C 38.862 114, 39.064 114.486, 38.450 116.250 C 38.019 117.487, 37.641 120.412, 37.609 122.750 C 37.573 125.501, 37.103 127, 36.276 127 C 35.574 127, 35 127.378, 35 127.840 C 35 128.301, 31.738 129.242, 27.750 129.930 C 23.763 130.618, 19.375 131.668, 18 132.265 C 16.625 132.861, 15.275 133.308, 15 133.257 C 14.306 133.130, 14.736 170.764, 15.442 171.905 C 15.756 172.413, 15.480 173.007, 14.829 173.224 C 14.178 173.441, 13.977 174.154, 14.382 174.809 C 15.570 176.731, 16.991 176.180, 17.116 173.750 C 17.203 172.057, 17.345 171.933, 17.689 173.250 C 17.941 174.213, 18.564 175, 19.073 175 C 19.583 175, 20 175.675, 20 176.500 C 20 178.456, 20.532 178.394, 23.790 176.056 C 25.922 174.527, 27.509 174.234, 31.230 174.684 C 33.832 174.998, 35.699 175.678, 35.379 176.195 C 35.060 176.712, 35.691 177.368, 36.782 177.653 C 38.303 178.051, 38.922 179.353, 39.438 183.243 C 39.808 186.032, 39.715 188.581, 39.232 188.907 C 38.749 189.233, 38.064 190.287, 37.708 191.250 C 36.994 193.185, 35.455 193.545, 34.500 192 C 34.160 191.450, 32.982 191, 31.882 191 C 30.782 191, 30.160 191.450, 30.500 192 C 30.840 192.550, 30.750 193, 30.300 193 C 29.849 193, 28.902 193.927, 28.195 195.060 C 26.993 196.983, 27.052 197.043, 29.077 195.959 C 31.240 194.801, 31.241 194.804, 29.373 197.294 C 27.936 199.209, 27.093 199.574, 25.750 198.860 C 24.201 198.037, 24 198.462, 24 202.560 C 24 205.499, 24.691 208.162, 25.890 209.846 C 26.930 211.306, 27.884 212.950, 28.010 213.500 C 28.136 214.050, 28.639 215.550, 29.127 216.834 C 30.165 219.565, 29.200 221.924, 27.890 219.857 C 27.300 218.926, 27.031 219.441, 27.031 221.500 C 27.031 223.570, 27.298 224.077, 27.894 223.137 C 28.623 221.986, 28.844 221.986, 29.312 223.137 C 29.687 224.062, 30.089 223.764, 30.560 222.210 C 31.215 220.049, 31.358 220.014, 33.108 221.597 C 34.127 222.520, 35.245 224.788, 35.592 226.637 C 35.948 228.537, 36.827 230, 37.611 230 C 38.375 230, 39 230.605, 39 231.345 C 39 232.085, 39.880 233.486, 40.955 234.460 C 43.019 236.328, 45.339 236.254, 53.934 234.046 C 57.695 233.080, 58.500 233.142, 59.234 234.454 C 60.127 236.050, 63 236.619, 63 235.200 C 63 234.760, 62.460 233.860, 61.800 233.200 C 60.438 231.838, 60.374 231.875, 64.750 231.507 C 68.164 231.220, 69.251 232.526, 66.250 233.311 C 64.971 233.645, 65.123 233.799, 66.817 233.884 C 68.661 233.976, 69.005 234.409, 68.500 236 C 67.810 238.173, 68.951 238.649, 70.687 236.913 C 71.453 236.147, 71.969 236.141, 72.432 236.891 C 73.226 238.174, 70.404 248.132, 69.001 248.999 C 67.773 249.759, 66.721 262.709, 67.832 263.396 C 68.277 263.671, 69.839 264.113, 71.304 264.379 C 74.773 265.008, 76.171 265.914, 75.457 267.069 C 75.141 267.581, 75.584 268, 76.441 268 C 77.298 268, 78 268.436, 78 268.969 C 78 269.501, 78.662 269.683, 79.471 269.373 C 80.279 269.063, 82.035 269.669, 83.373 270.721 C 85.555 272.438, 85.635 272.743, 84.152 273.700 C 83.243 274.286, 82.845 275.126, 83.267 275.566 C 83.688 276.006, 84.566 275.834, 85.217 275.183 C 86.894 273.506, 89.142 273.768, 91.750 275.944 C 94.403 278.157, 94.533 278.741, 92.466 279.177 C 91.276 279.428, 91.420 279.802, 93.111 280.849 C 95.014 282.027, 95.214 282, 94.689 280.631 C 94.358 279.769, 94.518 278.798, 95.044 278.473 C 95.570 278.148, 96 278.310, 96 278.834 C 96 279.358, 96.652 280.036, 97.449 280.342 C 98.453 280.727, 98.714 280.418, 98.297 279.333 C 97.813 278.070, 98.064 277.957, 99.598 278.749 C 100.644 279.288, 102.021 279.542, 102.658 279.312 C 103.295 279.082, 104.110 279.368, 104.467 279.947 C 104.825 280.526, 105.879 280.986, 106.809 280.970 C 108.222 280.944, 108.171 280.755, 106.500 279.822 C 105.400 279.208, 104.321 278.555, 104.101 278.371 C 103.882 278.187, 104.793 276.341, 106.126 274.268 C 107.459 272.196, 109.019 269.630, 109.592 268.567 C 110.165 267.504, 111.504 266.154, 112.567 265.567 C 113.630 264.980, 114.782 264.113, 115.127 263.639 C 115.473 263.166, 118.092 263.100, 120.949 263.493 C 126.252 264.222, 128.120 265.946, 126.163 268.304 C 125.379 269.248, 125.633 269.914, 127.134 270.851 C 128.899 271.954, 129.122 272.964, 128.833 278.562 C 128.650 282.105, 128.889 285.003, 129.365 285.002 C 129.841 285.001, 129.552 286.035, 128.723 287.300 C 126.784 290.259, 128.557 294.583, 131.012 292.880 C 132.134 292.102, 132.192 291.723, 131.250 291.341 C 127.472 289.808, 131.885 289.253, 148.644 289.155 C 158.898 289.095, 167.507 288.827, 167.775 288.558 C 168.043 288.290, 169.104 288.520, 170.131 289.070 C 171.579 289.845, 172 289.724, 172 288.535 C 172 287.691, 171.495 287, 170.878 287 C 170.107 287, 170.072 286.608, 170.766 285.750 C 171.321 285.063, 172.103 282.025, 172.503 279 C 172.903 275.975, 173.733 272.600, 174.349 271.500 C 174.964 270.400, 175.474 268.375, 175.483 267 C 175.497 264.966, 176.059 264.439, 178.500 264.173 C 180.150 263.993, 181.928 263.431, 182.450 262.923 C 184.280 261.145, 186.520 262.044, 188.875 265.501 C 190.181 267.419, 193.697 271.416, 196.689 274.384 C 200.794 278.457, 202.640 279.645, 204.220 279.232 C 205.634 278.862, 206.083 279.057, 205.604 279.831 C 205.158 280.553, 205.425 280.774, 206.327 280.428 C 207.114 280.126, 207.700 279.130, 207.629 278.215 C 207.549 277.189, 208.675 276.158, 210.565 275.526 C 212.251 274.961, 215.061 273.294, 216.810 271.819 C 220.730 268.513, 223.695 267.502, 225.375 268.896 C 226.348 269.704, 226.636 269.448, 226.577 267.830 C 226.535 266.660, 227.125 265.486, 227.889 265.221 C 228.691 264.944, 229.001 265.189, 228.623 265.801 C 228.262 266.385, 228.425 267.144, 228.984 267.490 C 229.545 267.837, 230 267.205, 230 266.078 C 230 264.763, 230.846 263.826, 232.382 263.440 C 234.573 262.890, 234.738 262.416, 234.445 257.506 C 234.270 254.571, 233.210 250.372, 232.090 248.176 C 230.970 245.980, 229.747 242.267, 229.372 239.926 C 228.764 236.125, 228.881 235.740, 230.457 236.345 C 231.754 236.843, 232.072 236.630, 231.655 235.543 C 230.753 233.193, 232.933 232.629, 235.153 234.639 C 237.072 236.375, 237.249 236.380, 238.451 234.737 C 239.941 232.698, 241.625 232.487, 242.341 234.250 C 242.736 235.224, 243.038 235.232, 243.710 234.288 C 244.642 232.976, 249 233.659, 249 235.117 C 249 235.602, 251.588 235.998, 254.750 235.997 L 260.500 235.993 263.465 230.497 C 265.096 227.473, 266.783 225, 267.215 225 C 267.647 225, 268 224.363, 268 223.583 C 268 222.804, 269.237 221.238, 270.750 220.102 C 272.991 218.420, 273.234 217.863, 272.064 217.095 C 270.856 216.302, 270.842 215.895, 271.975 214.531 C 272.715 213.639, 273.848 213.112, 274.494 213.359 C 275.139 213.607, 275.707 213.290, 275.757 212.655 C 275.806 212.020, 276.173 208.448, 276.571 204.718 C 277.210 198.732, 277.074 197.774, 275.409 196.557 C 274.371 195.798, 273.145 195.410, 272.684 195.695 C 272.224 195.980, 270.964 195.265, 269.884 194.106 C 268.805 192.948, 267.490 192, 266.961 192 C 265.031 192, 262.043 188.052, 262.693 186.359 C 263.155 185.155, 262.974 184.898, 262.063 185.461 C 261.075 186.071, 260.950 185.486, 261.509 182.875 C 261.906 181.019, 262.681 178.941, 263.232 178.257 C 265.297 175.694, 279.998 173.165, 279.999 175.372 C 280 175.852, 280.631 175.721, 281.403 175.081 C 282.480 174.187, 282.926 174.216, 283.324 175.208 C 283.653 176.030, 283.871 175.863, 283.921 174.750 C 283.964 173.787, 284.565 173, 285.256 173 C 286.206 173, 286.567 168.802, 286.742 155.750 C 286.931 141.659, 286.663 137.625, 285.279 133.723 C 283.984 130.070, 283.222 129.111, 282.043 129.651 C 278.943 131.070, 268.236 129.634, 266.500 127.567 C 265.950 126.912, 264.766 126.101, 263.868 125.765 C 262.887 125.397, 262.049 123.628, 261.767 121.327 C 261.347 117.913, 261.713 117.099, 265.155 113.784 C 267.484 111.541, 269.605 110.295, 270.506 110.641 C 271.540 111.037, 272 110.565, 272 109.107 C 272 107.948, 272.477 107, 273.059 107 C 273.641 107, 273.840 107.450, 273.500 108 C 273.160 108.550, 273.359 109, 273.941 109 C 274.523 109, 275 108.380, 275 107.622 C 275 106.865, 275.675 105.685, 276.500 105 C 278.400 103.423, 278.404 101.007, 276.513 97.364 C 275.695 95.789, 275.275 93.713, 275.580 92.750 C 275.887 91.783, 275.625 91, 274.996 91 C 273.177 91, 271.396 88.731, 270.076 84.730 C 269.402 82.687, 268.310 80.674, 267.651 80.258 C 265.393 78.831, 263.120 74.256, 263.655 72.213 C 264.457 69.145, 261.373 67.986, 254.782 68.881 C 251.713 69.297, 247.942 70.463, 246.402 71.472 C 244.503 72.717, 243.479 72.936, 243.218 72.153 C 243.006 71.519, 241.941 71, 240.849 71 C 239.260 71, 238.999 70.553, 239.536 68.750 C 240.194 66.545, 240.177 66.540, 238.686 68.497 C 237.592 69.934, 237.463 70.853, 238.224 71.770 C 239.038 72.751, 238.864 72.885, 237.468 72.349 C 236.068 71.812, 235.795 72.024, 236.275 73.275 C 236.720 74.433, 236.471 74.734, 235.407 74.326 C 234.587 74.011, 234.077 73.268, 234.275 72.675 C 234.740 71.280, 231.935 68, 230.278 68 C 228.410 68, 228.714 64.517, 231.025 59.445 C 233.166 54.745, 233.868 54.268, 235.800 56.200 C 236.733 57.133, 237 57.022, 237 55.700 C 237 54.765, 237.450 54, 238 54 C 238.550 54, 239 53.530, 239 52.956 C 239 52.382, 238.235 52.045, 237.299 52.206 C 236.006 52.430, 235.419 51.478, 234.848 48.227 C 234.434 45.876, 233.512 43.387, 232.798 42.694 C 230.187 40.160, 225.259 37.074, 224.706 37.627 C 224.394 37.939, 223.549 37.251, 222.829 36.097 C 222.108 34.944, 220.615 33.989, 219.509 33.975 C 218.404 33.962, 215.297 32.274, 212.603 30.225 C 209.910 28.176, 207.210 26.232, 206.603 25.905 C 201.814 23.325, 200.855 22.956, 201.454 23.926 C 201.819 24.517, 201.620 25, 201.011 25 C 199.748 25, 195 29.854, 195 31.146 C 195 31.616, 194.277 32, 193.393 32 C 192.375 32, 191.997 32.550, 192.362 33.500 C 193.052 35.300, 191.387 35.544, 190.659 33.750 C 190.262 32.770, 189.951 32.786, 189.221 33.824 C 188.470 34.893, 187.948 34.805, 186.513 33.371 C 184.810 31.668, 184.769 31.696, 185.514 34.043 C 185.941 35.390, 187.013 37.058, 187.896 37.749 C 189.365 38.899, 189.363 38.958, 187.879 38.445 C 186.920 38.114, 186.006 38.543, 185.640 39.494 C 185.301 40.380, 185.437 40.848, 185.942 40.536 C 186.448 40.223, 187.115 40.378, 187.425 40.879 C 188.549 42.698, 185.190 42.780, 179.904 41.064 C 174.865 39.427, 174.484 39.079, 174.259 35.904 C 174.022 32.565, 172.344 23.213, 171.358 19.739 C 170.549 16.888, 165.677 14.953, 160.818 15.552 C 158.443 15.845, 155.150 15.655, 153.500 15.128 C 151.850 14.602, 151.287 14.133, 152.250 14.086 C 153.213 14.039, 154 13.550, 154 13 C 154 11.403, 151.300 11.843, 149.394 13.750 M 166.694 12.639 C 165.895 13.438, 166.798 15, 168.059 15 C 168.577 15, 169 14.325, 169 13.500 C 169 11.954, 167.820 11.513, 166.694 12.639 M 102 19 C 102 19.550, 102.450 20, 103 20 C 103.550 20, 104 19.550, 104 19 C 104 18.450, 103.550 18, 103 18 C 102.450 18, 102 18.450, 102 19 M 212 19 C 212 19.550, 212.423 20, 212.941 20 C 213.459 20, 214.160 19.550, 214.500 19 C 214.840 18.450, 214.416 18, 213.559 18 C 212.702 18, 212 18.450, 212 19 M 196.459 22.067 C 196.096 22.653, 196.040 23.373, 196.333 23.667 C 197.050 24.383, 199 23.121, 199 21.941 C 199 20.663, 197.274 20.748, 196.459 22.067 M 177.229 32.188 C 177.847 34.042, 180 34.349, 180 32.583 C 180 31.712, 179.287 31, 178.417 31 C 177.546 31, 177.011 31.534, 177.229 32.188 M 231 34 C 231 34.550, 231.477 35, 232.059 35 C 232.641 35, 232.840 34.550, 232.500 34 C 232.160 33.450, 231.684 33, 231.441 33 C 231.198 33, 231 33.450, 231 34 M 228 35.819 C 228 37.027, 229.897 38.436, 230.591 37.743 C 230.842 37.491, 230.362 36.716, 229.524 36.020 C 228.574 35.231, 228 35.155, 228 35.819 M 114.226 39.574 C 115.176 40.568, 116.227 41.107, 116.562 40.771 C 116.897 40.436, 116.120 39.623, 114.836 38.964 C 112.603 37.819, 112.576 37.846, 114.226 39.574 M 64.079 48.583 C 64.127 49.748, 64.364 49.985, 64.683 49.188 C 64.972 48.466, 64.936 47.603, 64.604 47.271 C 64.272 46.939, 64.036 47.529, 64.079 48.583 M 237 49 C 237 49.550, 237.450 50, 238 50 C 238.550 50, 239 49.550, 239 49 C 239 48.450, 238.550 48, 238 48 C 237.450 48, 237 48.450, 237 49 M 248 67 C 248 67.550, 249.125 68, 250.500 68 C 251.875 68, 253 67.550, 253 67 C 253 66.450, 251.875 66, 250.500 66 C 249.125 66, 248 66.450, 248 67 M 146 71.794 C 142.447 72.092, 130.791 75.416, 127.938 76.945 C 127.080 77.405, 124.962 77.617, 123.232 77.415 C 119.144 76.939, 118.355 78.347, 121.540 80.435 C 122.928 81.344, 123.784 82.540, 123.443 83.092 C 123.064 83.706, 122.370 83.743, 121.661 83.187 C 119.597 81.570, 113 80.976, 113 82.408 C 113 83.113, 112.100 84.505, 111 85.500 C 109.900 86.495, 109 86.945, 109 86.500 C 109 84.734, 105.181 89.275, 104.744 91.560 C 104.384 93.440, 104.705 94, 106.139 94 C 107.215 94, 108.033 94.738, 108.079 95.750 C 108.126 96.795, 108.361 96.997, 108.662 96.250 C 108.940 95.563, 109.756 95, 110.476 95 C 111.197 95, 112.043 94.330, 112.357 93.512 C 112.687 92.652, 112.416 92.124, 111.714 92.262 C 111.046 92.393, 110.500 91.825, 110.500 91 C 110.500 89.883, 111.650 89.509, 115 89.537 C 117.475 89.557, 120.063 89.026, 120.751 88.357 C 121.439 87.689, 124.589 86.621, 127.751 85.986 C 130.913 85.350, 134.021 84.164, 134.658 83.350 C 135.295 82.536, 136.420 81.953, 137.158 82.053 C 137.896 82.154, 139.400 82.152, 140.500 82.048 L 142.500 81.859 140.500 80.909 C 138.804 80.103, 138.880 80.052, 141 80.571 C 142.375 80.908, 148.450 81.544, 154.500 81.984 C 168.913 83.033, 172.672 83.790, 177.588 86.635 C 182.424 89.433, 183 89.514, 183 87.393 C 183 86.375, 183.550 85.997, 184.500 86.362 C 185.325 86.678, 186 86.501, 186 85.969 C 186 85.436, 186.460 85, 187.023 85 C 187.586 85, 187.345 86.071, 186.487 87.379 C 185.064 89.552, 185.073 89.814, 186.591 90.396 C 188.848 91.263, 191.628 89.029, 189.797 87.819 C 188.777 87.145, 188.878 86.672, 190.273 85.604 C 191.939 84.328, 191.908 84.204, 189.773 83.564 C 187.570 82.904, 187.562 82.857, 189.500 82.012 C 191.043 81.340, 191.128 81.124, 189.872 81.070 C 188.977 81.032, 187.685 80.325, 187 79.500 C 186.315 78.675, 184.886 78, 183.823 78 C 182.760 78, 179.920 77.103, 177.512 76.006 C 175.104 74.909, 172.421 74.285, 171.549 74.619 C 170.677 74.954, 168.679 74.696, 167.109 74.045 C 163.861 72.700, 151.241 71.354, 146 71.794 M 268 78.213 C 268 79.319, 270.760 79.197, 271.463 78.061 C 271.782 77.544, 271.134 77.190, 270.022 77.273 C 268.910 77.357, 268 77.780, 268 78.213 M 31.459 79.067 C 30.433 80.727, 31.354 80.957, 32.789 79.399 C 33.499 78.630, 33.638 78, 33.098 78 C 32.559 78, 31.821 78.480, 31.459 79.067 M 128 84 C 128 84.550, 128.477 85, 129.059 85 C 129.641 85, 129.840 84.550, 129.500 84 C 129.160 83.450, 128.684 83, 128.441 83 C 128.198 83, 128 83.450, 128 84 M 113.441 85.433 C 112.049 86.460, 111.805 87.175, 112.577 87.960 C 113.353 88.748, 113.976 88.348, 114.806 86.527 C 116.143 83.592, 116.043 83.512, 113.441 85.433 M 108.459 89.067 C 107.383 90.808, 108.608 91.177, 109.980 89.524 C 110.769 88.574, 110.845 88, 110.181 88 C 109.597 88, 108.821 88.480, 108.459 89.067 M 102 90.969 C 102 91.501, 101.383 91.700, 100.629 91.411 C 99.078 90.816, 97.593 93.631, 99 94.500 C 99.502 94.810, 99.659 95.725, 99.349 96.532 C 99.023 97.381, 99.362 98, 100.152 98 C 101.910 98, 104.282 94.293, 103.023 93.514 C 102.508 93.196, 102.341 92.275, 102.651 91.468 C 102.960 90.661, 102.941 90, 102.607 90 C 102.273 90, 102 90.436, 102 90.969 M 93.750 97.638 C 91.182 99.275, 90 100.760, 90 102.348 C 90 105.390, 90.866 106.142, 93.033 104.982 C 94.480 104.208, 94.714 104.376, 94.315 105.904 C 93.684 108.315, 95.423 109.400, 96.956 107.553 C 97.805 106.530, 97.843 105.575, 97.090 104.169 C 96.294 102.681, 96.404 101.910, 97.545 100.963 C 98.372 100.276, 98.823 99.490, 98.548 99.215 C 98.273 98.940, 97.362 99.284, 96.524 99.980 C 95.559 100.781, 95 100.852, 95 100.172 C 95 99.582, 95.733 98.689, 96.629 98.188 C 97.525 97.686, 98.088 96.819, 97.879 96.262 C 97.669 95.700, 95.827 96.314, 93.750 97.638 M 101.965 98.542 C 99.820 101.127, 102.440 102.817, 105 100.500 C 106.562 99.086, 106.745 98.456, 105.774 97.839 C 103.969 96.694, 103.414 96.796, 101.965 98.542 M 98 103 C 98 103.550, 98.450 104, 99 104 C 99.550 104, 100 103.550, 100 103 C 100 102.450, 99.550 102, 99 102 C 98.450 102, 98 102.450, 98 103 M 84.864 107.016 C 83.964 107.542, 82.914 109.666, 82.530 111.736 C 82.146 113.806, 80.944 116.944, 79.859 118.710 C 78.356 121.155, 78.131 122.377, 78.914 123.840 C 79.710 125.326, 79.497 126.274, 77.971 128.033 C 75.811 130.524, 75.450 132, 77 132 C 77.550 132, 78 132.408, 78 132.906 C 78 133.405, 77.163 133.594, 76.139 133.326 C 70.340 131.810, 70.805 166.941, 76.758 180 C 77.886 182.475, 79.594 186.411, 80.555 188.747 C 81.864 191.930, 82.613 192.736, 83.545 191.963 C 85.382 190.438, 88.148 193.562, 87.444 196.366 C 87.071 197.854, 87.566 199.202, 88.943 200.449 C 90.075 201.472, 91 202.845, 91 203.500 C 91 204.155, 91.900 205.505, 93 206.500 C 94.394 207.762, 95 207.913, 95 207 C 95 206.056, 95.522 206.162, 96.868 207.381 C 98.651 208.994, 98.714 208.955, 98.252 206.536 C 97.602 203.140, 99.506 203.303, 101.246 206.792 C 102.695 209.697, 102.501 212.428, 100.915 211.447 C 99.547 210.602, 99.870 212.244, 101.492 214.386 C 102.468 215.676, 104.171 216.273, 106.876 216.273 C 110.088 216.273, 110.724 216.576, 110.257 217.886 C 109.940 218.774, 110.032 219.184, 110.460 218.798 C 111.335 218.008, 114 220.314, 114 221.860 C 114 223.754, 119.789 226.985, 123.643 227.242 C 125.765 227.384, 127.831 227.950, 128.235 228.500 C 128.650 229.065, 128.976 228.738, 128.985 227.750 C 128.993 226.787, 129.675 226, 130.500 226 C 132.300 226, 132.544 227.987, 130.750 228.030 C 127.532 228.109, 133.635 230.153, 140.679 231.356 C 146.160 232.292, 151.642 232.466, 159 231.937 C 171.261 231.057, 170.260 231.230, 169.565 230.105 C 169.260 229.612, 170.696 228.966, 172.756 228.670 C 178.501 227.842, 186 225.635, 186 224.773 C 186 224.348, 186.637 224, 187.417 224 C 188.196 224, 189.002 223.493, 189.209 222.873 C 189.415 222.254, 190.465 221.659, 191.542 221.553 C 194.877 221.222, 196.898 219.898, 196.330 218.417 C 196.031 217.638, 195.047 216.964, 194.143 216.921 C 193.196 216.876, 193.006 216.636, 193.695 216.356 C 194.352 216.089, 195.814 216.365, 196.945 216.970 C 198.320 217.706, 199 217.728, 199 217.035 C 199 216.466, 199.627 216, 200.393 216 C 201.159 216, 202.059 215.288, 202.393 214.418 C 203.271 212.130, 203.141 211, 202 211 C 201.450 211, 201.113 211.338, 201.250 211.750 C 201.388 212.163, 201.050 212.613, 200.500 212.750 C 199.164 213.084, 199.208 208.764, 200.545 208.318 C 201.120 208.127, 202.630 208.939, 203.901 210.123 C 205.784 211.876, 206.372 212.018, 207.074 210.888 C 207.579 210.074, 207.536 209.362, 206.968 209.167 C 205.439 208.640, 205.841 207, 207.500 207 C 208.325 207, 209.900 206.100, 211 205 C 212.100 203.900, 213.456 203, 214.013 203 C 214.570 203, 216.202 200.517, 217.639 197.481 C 219.076 194.446, 220.653 191.715, 221.142 191.412 C 221.632 191.109, 221.731 190.373, 221.362 189.776 C 220.982 189.162, 221.152 188.976, 221.755 189.348 C 222.911 190.063, 227.632 181.298, 226.630 180.297 C 226.301 179.967, 226.659 179.203, 227.426 178.599 C 229.374 177.064, 230.717 166.594, 228.888 167.204 C 228.155 167.448, 227.299 168.735, 226.985 170.064 C 226.577 171.791, 226.185 172.109, 225.611 171.180 C 225.169 170.464, 225.358 168.549, 226.032 166.923 C 226.984 164.625, 227.552 164.213, 228.587 165.072 C 229.621 165.931, 230.058 165.618, 230.547 163.667 C 231.766 158.811, 230.847 157.500, 226.224 157.500 C 223.068 157.500, 221.837 157.947, 221.425 159.241 C 221.120 160.199, 221.114 161.375, 221.410 161.855 C 222.306 163.304, 218.986 177.358, 217.311 179.209 C 216.446 180.164, 215.987 181.842, 216.282 182.969 C 216.574 184.089, 216.283 185.341, 215.633 185.752 C 214.983 186.164, 213.723 187.625, 212.831 189 C 211.940 190.375, 209.589 193.300, 207.606 195.500 C 205.624 197.700, 204.001 200.014, 204.001 200.643 C 204 201.272, 203.321 202.047, 202.491 202.365 C 201.662 202.683, 200.507 203.987, 199.926 205.263 C 199.345 206.538, 197.886 208.014, 196.685 208.541 C 195.057 209.256, 194.582 210.201, 194.822 212.250 C 194.998 213.762, 194.661 215, 194.072 215 C 193.482 215, 193 214.100, 193 213 C 193 211.900, 192.523 211, 191.941 211 C 191.359 211, 191.203 211.520, 191.595 212.155 C 192.027 212.853, 191.871 213.038, 191.199 212.623 C 190.588 212.245, 188.381 212.693, 186.294 213.619 C 183.543 214.839, 182.981 215.417, 184.250 215.724 C 185.213 215.956, 186 216.572, 186 217.092 C 186 217.613, 184.917 217.766, 183.593 217.434 C 182.269 217.102, 180.132 217.427, 178.843 218.156 C 177.554 218.885, 175.825 219.510, 175 219.545 C 171.639 219.686, 166 221.279, 166 222.086 C 166 222.561, 164.762 222.706, 163.250 222.407 C 161.738 222.108, 158.585 222.297, 156.244 222.827 C 153.418 223.467, 151.778 223.450, 151.362 222.777 C 150.966 222.136, 147.850 222.017, 142.868 222.451 C 137.258 222.940, 135 222.811, 135 222.001 C 135 221.294, 134.189 221.123, 132.849 221.548 C 131.138 222.091, 130.824 221.900, 131.317 220.615 C 131.765 219.448, 131.322 218.957, 129.719 218.844 C 122.810 218.357, 121.383 218.428, 120.226 219.311 C 118.341 220.751, 117.392 219.204, 118.788 216.968 C 120.415 214.362, 120.455 214.444, 116.691 212.658 C 113.102 210.954, 109 211.434, 109 213.558 C 109 215.074, 107.151 216.485, 106.291 215.624 C 105.974 215.308, 106.284 214.362, 106.980 213.524 C 107.882 212.437, 107.914 212, 107.091 212 C 106.456 212, 105.678 212.675, 105.362 213.500 C 104.606 215.469, 103 215.429, 103 213.441 C 103 212.584, 103.453 212.162, 104.007 212.504 C 104.561 212.847, 105.294 212.397, 105.636 211.506 C 105.986 210.595, 106.898 210.131, 107.719 210.446 C 108.523 210.754, 109.618 210.736, 110.152 210.406 C 111.170 209.777, 105.386 205.017, 103.556 204.977 C 102.975 204.965, 101.805 203.544, 100.956 201.820 C 99.166 198.185, 94.851 196.713, 95.719 200.034 C 96.169 201.755, 95.926 201.908, 93.921 201.167 C 90.949 200.067, 90.371 198.334, 92.728 197.586 C 95.031 196.856, 95.001 192.764, 92.675 190.193 C 91.754 189.175, 91 187.656, 91 186.817 C 91 185.978, 89.808 184.006, 88.351 182.433 L 85.701 179.575 84.815 181.972 C 84.327 183.291, 84.155 184.961, 84.433 185.685 C 84.710 186.408, 84.549 187, 84.076 187 C 82.756 187, 81.742 183.586, 82.943 183.186 C 83.524 182.992, 84 182.344, 84 181.745 C 84 181.147, 84.706 179.878, 85.568 178.925 C 86.890 177.464, 86.931 176.862, 85.828 175.096 C 85.108 173.943, 83.963 173, 83.284 173 C 82.473 173, 82.235 172.057, 82.591 170.250 C 82.888 168.738, 82.696 161.655, 82.163 154.511 C 81.352 143.624, 81.436 141.058, 82.679 138.653 C 83.495 137.076, 83.899 134.736, 83.578 133.454 C 83.256 132.172, 83.444 130.843, 83.996 130.502 C 84.548 130.161, 85 129.432, 85 128.882 C 85 128.332, 84.480 128.203, 83.845 128.595 C 82.391 129.494, 83.581 127.491, 86.438 124.229 C 87.572 122.934, 88.725 120.441, 89 118.687 C 89.275 116.934, 90.040 115.500, 90.700 115.500 C 93.065 115.500, 94.183 113.397, 92.542 112.035 C 91.412 111.097, 91 111.071, 91 111.937 C 91 112.586, 90.570 112.852, 90.044 112.527 C 89.518 112.202, 89.369 111.202, 89.714 110.304 C 90.166 109.124, 89.972 108.899, 89.012 109.492 C 88.017 110.108, 87.826 109.774, 88.249 108.156 C 88.856 105.835, 87.607 105.415, 84.864 107.016 M 93.500 111 C 93.840 111.550, 94.316 112, 94.559 112 C 94.802 112, 95 111.550, 95 111 C 95 110.450, 94.523 110, 93.941 110 C 93.359 110, 93.160 110.450, 93.500 111 M 87.079 114.583 C 87.127 115.748, 87.364 115.985, 87.683 115.188 C 87.972 114.466, 87.936 113.603, 87.604 113.271 C 87.272 112.939, 87.036 113.529, 87.079 114.583 M 38.720 120.332 C 37.606 123.165, 37.788 124.612, 39.094 123.306 C 39.695 122.705, 40.020 121.377, 39.814 120.356 C 39.454 118.566, 39.415 118.565, 38.720 120.332 M 274 124 C 274 124.550, 274.450 125, 275 125 C 275.550 125, 276 124.550, 276 124 C 276 123.450, 275.550 123, 275 123 C 274.450 123, 274 123.450, 274 124 M 278.500 125.713 C 279.600 125.978, 280.928 126.600, 281.450 127.097 C 282.932 128.506, 285 128.158, 285 126.500 C 285 125.384, 283.913 125.030, 280.750 125.116 C 278.413 125.180, 277.400 125.448, 278.500 125.713 M 272 178 C 272 178.550, 272.450 179, 273 179 C 273.550 179, 274 178.550, 274 178 C 274 177.450, 273.550 177, 273 177 C 272.450 177, 272 177.450, 272 178 M 36.500 182 C 36.160 182.550, 36.359 183, 36.941 183 C 37.523 183, 38 182.550, 38 182 C 38 181.450, 37.802 181, 37.559 181 C 37.316 181, 36.840 181.450, 36.500 182 M 222 183.059 C 222 183.641, 222.450 183.840, 223 183.500 C 223.550 183.160, 224 182.684, 224 182.441 C 224 182.198, 223.550 182, 223 182 C 222.450 182, 222 182.477, 222 183.059 M 268.500 191 C 268.160 191.550, 268.359 192, 268.941 192 C 269.523 192, 270 191.550, 270 191 C 270 190.450, 269.802 190, 269.559 190 C 269.316 190, 268.840 190.450, 268.500 191 M 23.500 192 C 23.840 192.550, 24.879 192.993, 25.809 192.985 C 27.266 192.971, 27.293 192.835, 26 192 C 24.042 190.734, 22.718 190.734, 23.500 192 M 84.500 195 C 84.840 195.550, 85.316 196, 85.559 196 C 85.802 196, 86 195.550, 86 195 C 86 194.450, 85.523 194, 84.941 194 C 84.359 194, 84.160 194.450, 84.500 195 M 213.667 196.667 C 212.516 197.817, 212.938 199, 214.500 199 C 215.325 199, 216 198.325, 216 197.500 C 216 195.938, 214.817 195.516, 213.667 196.667 M 207.564 198.707 C 207.022 200.132, 207.136 200.247, 208.124 199.267 C 208.808 198.588, 209.115 197.781, 208.807 197.474 C 208.499 197.166, 207.940 197.721, 207.564 198.707 M 92 204 C 92 204.550, 92.675 205, 93.500 205 C 94.325 205, 95 204.550, 95 204 C 95 203.450, 94.325 203, 93.500 203 C 92.675 203, 92 203.450, 92 204 M 202.583 204.866 C 202.152 205.563, 202.070 206.403, 202.400 206.733 C 203.295 207.628, 204.271 206.312, 203.787 204.862 C 203.449 203.846, 203.213 203.846, 202.583 204.866 M 187.750 218.757 C 186.787 218.971, 186 219.564, 186 220.073 C 186 221.351, 188.732 221.243, 189.541 219.933 C 190.384 218.569, 189.932 218.272, 187.750 218.757 M 180 220 C 180 220.550, 180.648 221, 181.441 221 C 182.234 221, 183.160 220.550, 183.500 220 C 183.840 219.450, 183.191 219, 182.059 219 C 180.927 219, 180 219.450, 180 220 M 125.250 222.500 C 125.250 223.955, 125.825 225, 126.625 225 C 128.120 225, 128.336 224.039, 127.393 221.582 C 126.468 219.172, 125.250 219.694, 125.250 222.500 M 173 220.847 C 173 221.313, 171.988 222.225, 170.750 222.873 C 168.516 224.044, 168.518 224.049, 171 223.540 C 172.375 223.258, 174.320 223.021, 175.321 223.014 C 176.940 223.002, 176.976 222.833, 175.643 221.500 C 173.962 219.819, 173 219.582, 173 220.847 M 271.600 222.600 C 271.244 223.527, 271.178 224.511, 271.453 224.786 C 271.728 225.061, 272.244 224.527, 272.600 223.600 C 272.956 222.673, 273.022 221.689, 272.747 221.414 C 272.472 221.139, 271.956 221.673, 271.600 222.600 M 235.553 231.915 C 235.231 232.436, 235.394 233.125, 235.915 233.447 C 236.436 233.769, 237.125 233.606, 237.447 233.085 C 237.769 232.564, 237.606 231.875, 237.085 231.553 C 236.564 231.231, 235.875 231.394, 235.553 231.915 M 36.543 232.931 C 36.226 233.443, 36.425 234.144, 36.984 234.490 C 37.543 234.835, 38 234.416, 38 233.559 C 38 231.802, 37.400 231.544, 36.543 232.931 M 236 256 C 236 256.550, 236.477 257, 237.059 257 C 237.641 257, 237.840 256.550, 237.500 256 C 237.160 255.450, 236.684 255, 236.441 255 C 236.198 255, 236 255.450, 236 256 M 65 266 C 65 266.550, 65.450 267, 66 267 C 66.550 267, 67 266.550, 67 266 C 67 265.450, 66.550 265, 66 265 C 65.450 265, 65 265.450, 65 266 M 178.500 266 C 176.728 266.762, 176.813 266.867, 179.250 266.930 C 180.762 266.968, 182 266.550, 182 266 C 182 264.826, 181.231 264.826, 178.500 266 M 61.079 267.583 C 61.127 268.748, 61.364 268.985, 61.683 268.188 C 61.972 267.466, 61.936 266.603, 61.604 266.271 C 61.272 265.939, 61.036 266.529, 61.079 267.583 M 112.128 266.900 C 111.374 267.378, 110.961 268.382, 111.211 269.132 C 111.527 270.081, 112.030 269.813, 112.868 268.247 C 114.197 265.763, 114.127 265.634, 112.128 266.900 M 182.105 267.804 C 180.917 270.023, 181.547 271, 184.167 271 C 186.349 271, 186.582 268.728, 184.570 267.058 C 183.429 266.112, 182.930 266.263, 182.105 267.804 M 116.570 267.887 C 116.269 268.374, 116.711 269.345, 117.553 270.044 C 118.744 271.032, 119.352 271.048, 120.284 270.116 C 121.216 269.184, 121.151 268.707, 119.992 267.974 C 118.113 266.786, 117.264 266.764, 116.570 267.887 M 211 277.059 C 211 277.641, 211.450 277.840, 212 277.500 C 212.550 277.160, 213 276.684, 213 276.441 C 213 276.198, 212.550 276, 212 276 C 211.450 276, 211 276.477, 211 277.059 M 216.500 278 C 216.840 278.550, 217.541 279, 218.059 279 C 218.577 279, 219 278.550, 219 278 C 219 277.450, 218.298 277, 217.441 277 C 216.584 277, 216.160 277.450, 216.500 278 M 212 280 C 212 281.253, 213.061 281.253, 215 280 C 216.213 279.216, 216.069 279.028, 214.250 279.015 C 213.012 279.007, 212 279.450, 212 280 M 138 291 C 138 291.550, 139.125 292, 140.500 292 C 141.875 292, 143 291.550, 143 291 C 143 290.450, 141.875 290, 140.500 290 C 139.125 290, 138 290.450, 138 291 M 168 290.819 C 168 292.027, 169.897 293.436, 170.591 292.743 C 170.842 292.491, 170.362 291.716, 169.524 291.020 C 168.574 290.231, 168 290.155, 168 290.819 M 278.500 295 C 278.160 295.550, 278.359 296, 278.941 296 C 279.523 296, 280 295.550, 280 295 C 280 294.450, 279.802 294, 279.559 294 C 279.316 294, 278.840 294.450, 278.500 295 M 118 296.031 C 118 296.564, 118.675 297, 119.500 297 C 120.325 297, 121 296.823, 121 296.607 C 121 296.391, 120.325 295.955, 119.500 295.638 C 118.675 295.322, 118 295.499, 118 296.031 M 179 296 C 179 296.550, 179.477 297, 180.059 297 C 180.641 297, 180.840 296.550, 180.500 296 C 180.160 295.450, 179.684 295, 179.441 295 C 179.198 295, 179 295.450, 179 296 M 281.490 298.016 C 281.144 298.575, 280.443 298.774, 279.931 298.457 C 279.419 298.141, 279 298.359, 279 298.941 C 279 299.523, 279.900 300, 281 300 C 282.111 300, 283 299.333, 283 298.500 C 283 296.761, 282.387 296.564, 281.490 298.016 M 174.500 299 C 174.149 299.567, 174.990 300, 176.441 300 C 177.848 300, 179 299.550, 179 299 C 179 298.450, 178.127 298, 177.059 298 C 175.991 298, 174.840 298.450, 174.500 299 M 98.813 299.683 C 99.534 299.972, 100.397 299.936, 100.729 299.604 C 101.061 299.272, 100.471 299.036, 99.417 299.079 C 98.252 299.127, 98.015 299.364, 98.813 299.683 M 108.750 299.662 C 109.438 299.940, 110.563 299.940, 111.250 299.662 C 111.938 299.385, 111.375 299.158, 110 299.158 C 108.625 299.158, 108.063 299.385, 108.750 299.662" stroke="none" fill="#000000" fill-rule="evenodd"/>
</svg>