<svg xmlns="http://www.w3.org/2000/svg" width="300" height="300" viewBox="0 0 300 300" version="1.1">
	<path d="M 141.902 58.156 C 130.811 59.001, 122.743 61.222, 111.133 66.625 C 90.643 76.160, 76.153 90.656, 66.609 111.166 C 59.154 127.188, 56.747 140.905, 58.182 159.192 C 59.061 170.393, 61.226 178.264, 66.609 189.834 C 76.153 210.344, 90.643 224.840, 111.133 234.375 C 122.735 239.774, 130.599 241.938, 141.808 242.818 C 160.108 244.254, 173.811 241.847, 189.867 234.375 C 210.357 224.840, 224.847 210.344, 234.391 189.834 C 239.774 178.264, 241.939 170.393, 242.818 159.192 C 244.253 140.905, 241.846 127.188, 234.391 111.166 C 224.847 90.656, 210.357 76.160, 189.867 66.625 C 173.922 59.205, 160.114 56.767, 141.902 58.156 M 143 70.641 C 115.174 74.003, 89.965 92.043, 78.259 116.970 C 71.981 130.337, 70.594 136.782, 70.608 152.500 C 70.621 165.870, 71.717 172.886, 74.981 180.500 C 84.366 202.389, 98.070 217.422, 116.484 226.027 C 130.029 232.357, 135.539 233.500, 152.500 233.500 C 167.618 233.500, 173.455 232.514, 182.651 228.407 C 184.384 227.633, 186.048 227, 186.348 227 C 187.318 227, 199.214 219.797, 201.845 217.617 C 213.684 207.806, 220.952 198.615, 226.439 186.520 C 231 176.468, 232.771 170.473, 233.539 162.500 L 234.213 155.500 227.636 155.834 L 221.059 156.168 220.469 159.834 C 219.074 168.506, 217.497 173.946, 214.405 180.755 C 201.146 209.946, 168.849 226.239, 137.873 219.364 C 114.942 214.274, 96.232 198.252, 87.912 176.578 C 86.840 173.785, 85.290 167.075, 84.468 161.666 C 83.139 152.926, 83.140 150.792, 84.479 142.472 C 86.806 128.010, 91.246 118.386, 100.761 107.177 C 120.071 84.428, 153.585 77.507, 181.648 90.473 L 188.842 93.797 190.736 91.648 C 193.790 88.186, 196.126 84.013, 195.541 83.067 C 194.770 81.819, 186.375 77, 184.973 77 C 184.329 77, 182.384 76.373, 180.651 75.606 C 171.731 71.659, 153.966 69.316, 143 70.641 M 134.500 102.436 C 117.883 108.006, 109.155 115.498, 101.367 130.877 C 94.922 143.603, 94.427 160.958, 100.118 174.629 C 102.873 181.247, 109.070 190.470, 112.986 193.780 C 117.747 197.804, 126.273 202.837, 131.500 204.708 C 138.787 207.316, 149 208.732, 149 207.134 C 149 206.019, 147.624 205.593, 140.500 204.503 C 131.352 203.103, 120.220 197.216, 113.355 190.148 C 108.804 185.462, 103.287 177.020, 102.425 173.426 C 102.040 171.817, 101.224 169.868, 100.612 169.096 C 99.107 167.196, 99.107 140.804, 100.612 138.904 C 101.224 138.132, 102.043 136.150, 102.433 134.500 C 104.115 127.378, 112.743 117.146, 122.716 110.444 C 127.893 106.965, 138.314 103.013, 142.380 102.986 C 145.577 102.966, 149 101.878, 149 100.883 C 149 99.266, 141.588 100.060, 134.500 102.436 M 145.687 145.805 C 142.591 149.036, 142.085 154.249, 144.529 157.739 C 146.382 160.383, 152.337 162.208, 155.335 161.049 C 157.833 160.084, 161.409 156.327, 162.344 153.687 C 163.286 151.026, 160.499 146.395, 156.863 144.581 C 152.143 142.227, 148.760 142.597, 145.687 145.805 M 225.083 152.359 C 225.313 152.557, 226.850 153.021, 228.500 153.390 C 230.691 153.880, 231.095 153.787, 230 153.046 C 228.650 152.132, 224.080 151.494, 225.083 152.359" stroke="none" fill="#000000" fill-rule="evenodd"/>
</svg>