<svg xmlns="http://www.w3.org/2000/svg" width="300" height="300" viewBox="0 0 300 300" version="1.1">
	<path d="M 131.500 59.428 C 108.024 64.843, 88.542 77.617, 74.705 96.666 C 69.832 103.375, 62.743 118.625, 60.371 127.500 C 58.913 132.956, 58.500 138.029, 58.500 150.500 C 58.500 169.119, 59.739 175.136, 66.597 189.834 C 76.176 210.361, 90.627 224.818, 111.133 234.387 C 125.865 241.262, 131.872 242.500, 150.500 242.500 C 169.128 242.500, 175.135 241.262, 189.867 234.387 C 210.373 224.818, 224.824 210.361, 234.403 189.834 C 241.261 175.136, 242.500 169.119, 242.500 150.500 C 242.500 131.881, 241.261 125.864, 234.403 111.166 C 222.884 86.481, 202.412 69.005, 175.500 60.884 C 166.425 58.146, 140.743 57.296, 131.500 59.428 M 135.500 72.409 C 123.797 75.499, 112.057 80.247, 111.167 82.250 C 110.983 82.662, 110.350 83, 109.759 83 C 108.432 83, 98.937 90.263, 94.619 94.581 C 84.730 104.470, 77.037 117.956, 73.123 132.261 C 70.459 142, 70.178 160.968, 72.558 170.356 C 75.027 180.092, 79.643 191.649, 82.002 194 C 82.277 194.275, 83.177 195.817, 84.002 197.427 C 85.270 199.905, 99.886 215.236, 104.146 218.556 C 106.073 220.058, 117.999 227, 118.652 227 C 118.952 227, 120.616 227.605, 122.349 228.345 C 132.303 232.593, 148.824 234.622, 161.500 233.152 C 181.512 230.832, 198.799 222.106, 212 207.663 C 223.389 195.203, 231.084 178.559, 232.882 162.500 L 233.553 156.500 227.527 156.628 C 222.455 156.737, 221.457 157.054, 221.231 158.628 C 218.486 177.698, 208.801 195.952, 196.406 205.416 C 194.018 207.240, 192.387 209.054, 192.782 209.449 C 193.177 209.844, 193.050 210.028, 192.500 209.859 C 191.950 209.689, 187.781 211.459, 183.237 213.790 C 178.692 216.122, 172.167 218.691, 168.737 219.500 C 160.579 221.423, 143.095 221.422, 135.460 219.497 C 128.570 217.760, 114.354 210.811, 110.634 207.362 C 109.233 206.063, 107.807 205, 107.465 205 C 107.123 205, 105.077 203.088, 102.917 200.750 C 100.758 198.412, 98.318 195.787, 97.496 194.916 C 96.673 194.045, 96 192.845, 96 192.249 C 96 191.654, 95.646 191.017, 95.213 190.833 C 93.653 190.173, 89.202 181.345, 86.601 173.755 C 81.483 158.821, 82.029 141.178, 88.052 126.815 C 98.706 101.411, 120.714 85.482, 148.032 83.400 C 158.355 82.613, 168.666 84.508, 181 89.458 L 189.500 92.869 191.177 90.705 C 192.961 88.405, 194.065 84.325, 193.381 82.563 C 192.681 80.759, 186.912 77.945, 177.504 74.818 C 169.601 72.192, 166.788 71.781, 154.500 71.457 C 144.995 71.207, 138.895 71.513, 135.500 72.409 M 139.500 102 C 138.769 103.183, 139.748 103.183, 142.500 102 C 144.428 101.171, 144.421 101.138, 142.309 101.070 C 141.104 101.032, 139.840 101.450, 139.500 102 M 128.473 104.956 C 128.798 105.482, 129.725 105.659, 130.532 105.349 C 132.599 104.556, 132.356 104, 129.941 104 C 128.809 104, 128.148 104.430, 128.473 104.956 M 115.863 112.970 C 114.962 113.963, 113.391 115.241, 112.371 115.812 C 111.351 116.383, 110.826 117.160, 111.205 117.538 C 111.584 117.917, 113.605 116.605, 115.697 114.622 C 117.788 112.639, 119.050 111.051, 118.500 111.092 C 117.950 111.133, 116.763 111.978, 115.863 112.970 M 100 135.059 C 100 136.191, 100.450 136.840, 101 136.500 C 101.550 136.160, 102 135.234, 102 134.441 C 102 133.648, 101.550 133, 101 133 C 100.450 133, 100 133.927, 100 135.059 M 97.603 144.132 C 96.330 150.236, 96.010 155.852, 96.812 158.021 C 97.476 159.817, 97.831 158.201, 98.255 151.451 C 98.814 142.560, 98.550 139.595, 97.603 144.132 M 97.015 164.250 C 97.024 164.938, 97.467 166.175, 98 167 C 98.755 168.169, 98.973 167.893, 98.985 165.750 C 98.993 164.238, 98.550 163, 98 163 C 97.450 163, 97.007 163.563, 97.015 164.250 M 100.802 172.568 C 100.015 173.777, 105.711 186, 107.061 186 C 108.288 186, 107.115 183.056, 104.447 179.441 C 103.205 177.758, 102.033 175.283, 101.843 173.941 C 101.652 172.587, 101.188 171.976, 100.802 172.568 M 110.500 190 C 110.840 190.550, 111.316 191, 111.559 191 C 111.802 191, 112 190.550, 112 190 C 112 189.450, 111.523 189, 110.941 189 C 110.359 189, 110.160 189.450, 110.500 190 M 116.607 195.419 C 116.908 196.204, 117.859 197.116, 118.720 197.446 C 121.320 198.444, 121.226 197.378, 118.561 195.632 C 116.580 194.334, 116.174 194.290, 116.607 195.419 M 137 206 C 138.996 207.290, 144.297 207.290, 143.500 206 C 143.160 205.450, 141.221 205.007, 139.191 205.015 C 136.440 205.027, 135.882 205.277, 137 206" stroke="none" fill="#000000" fill-rule="evenodd"/>
</svg>