<svg xmlns="http://www.w3.org/2000/svg" width="300" height="300" viewBox="0 0 300 300" version="1.1">
	<path d="M 132.539 20.250 C 132.321 20.938, 131.616 26.055, 130.974 31.622 L 129.806 41.744 126.153 42.837 C 124.144 43.438, 121.600 44.135, 120.500 44.386 C 119.400 44.636, 117.522 45.121, 116.328 45.463 C 114.504 45.986, 113.201 44.833, 108.209 38.274 C 99.355 26.644, 100.620 26.984, 89.813 33.325 C 84.691 36.330, 78.025 40.118, 75 41.743 C 68.922 45.007, 68.139 46.590, 70.268 51.311 C 71.059 53.065, 72.926 57.445, 74.416 61.044 L 77.125 67.589 71.839 72.875 C 65.757 78.957, 65.185 78.995, 54.562 74.029 C 50.999 72.363, 47.048 71, 45.782 71 C 43.408 71, 43.048 71.412, 38.801 79 C 36.316 83.440, 34.752 86.171, 29.633 95 C 28.198 97.475, 27.019 100.038, 27.012 100.695 C 27.001 101.769, 30.835 105.130, 41.266 113.193 L 44.749 115.885 42.640 123.415 C 40.263 131.898, 41.059 131.401, 28 132.562 C 16.282 133.604, 17 132.307, 17 152.428 C 17 168.019, 17.178 169.859, 18.750 170.504 C 19.712 170.898, 24.954 171.734, 30.399 172.361 L 40.297 173.500 42.569 181 L 44.841 188.500 42.171 190.775 C 38.491 193.909, 38.043 194.254, 32.175 198.470 C 29.329 200.515, 27.018 202.933, 27.040 203.844 C 27.107 206.615, 43.421 233.457, 45.253 233.810 C 46.186 233.990, 51.257 232.248, 56.521 229.940 L 66.091 225.742 71.546 231.240 C 77.208 236.948, 77.640 237.864, 76.044 240.764 C 73.562 245.274, 69 256.319, 69 257.820 C 69.001 258.862, 71.754 261.057, 76.250 263.598 C 80.238 265.852, 86.749 269.565, 90.719 271.848 C 94.690 274.132, 98.590 276, 99.386 276 C 100.183 276, 103.821 272.175, 107.471 267.500 C 111.122 262.825, 114.617 259, 115.239 259 C 116.920 259, 128.390 262.203, 129.199 262.899 C 129.584 263.229, 130.399 267.775, 131.009 273 C 131.620 278.225, 132.348 283.288, 132.627 284.250 C 133.086 285.830, 134.823 286, 150.532 286 C 166.087 286, 168.026 285.815, 168.841 284.250 C 169.343 283.288, 170.296 277.993, 170.960 272.484 L 172.168 262.468 179.613 260.636 C 184.743 259.374, 187.438 259.120, 188.279 259.821 C 188.951 260.381, 191.975 264.237, 195 268.391 C 198.130 272.690, 201.246 275.956, 202.231 275.972 C 204 276.001, 229.420 261.908, 231.829 259.564 C 232.931 258.491, 232.461 256.632, 229.079 248.686 C 226.836 243.415, 225 238.501, 225 237.767 C 225 237.032, 227.390 234.071, 230.312 231.186 L 235.624 225.940 245.429 230.021 C 250.821 232.265, 255.894 233.966, 256.701 233.801 C 258.045 233.525, 275 205.786, 275 203.862 C 275 203.054, 261.538 191.960, 258.483 190.250 C 257.165 189.513, 257.206 188.544, 258.823 182.176 C 259.834 178.195, 261.075 174.561, 261.581 174.099 C 262.086 173.636, 266.926 172.774, 272.335 172.181 C 277.744 171.589, 282.771 170.605, 283.506 169.995 C 284.530 169.145, 284.815 165.032, 284.730 152.342 C 284.598 132.635, 285.153 133.455, 271.219 132.406 C 266.114 132.023, 261.624 131.211, 261.240 130.604 C 260.461 129.371, 256.863 115.751, 257.252 115.506 C 260.567 113.423, 275 101.581, 275 100.944 C 275 100.454, 273.874 98.129, 272.498 95.777 C 271.121 93.425, 267.409 86.895, 264.248 81.266 C 257.504 69.259, 257.675 69.321, 245.724 74.500 C 241.282 76.425, 237.079 78, 236.383 78 C 234.663 78, 225 68.632, 225 66.965 C 225 66.232, 225.840 63.802, 226.867 61.566 C 232.371 49.578, 233.216 46.788, 231.781 45.353 C 229.046 42.617, 202.914 28.096, 201.620 28.592 C 200.893 28.871, 197.497 32.942, 194.072 37.639 C 187.165 47.111, 188.550 46.627, 177.394 43.472 L 172.288 42.028 171.060 32.764 C 169.004 17.246, 171.577 19, 150.860 19 C 137.401 19, 132.838 19.311, 132.539 20.250 M 134.853 71.043 C 111.251 76.075, 89.190 92.904, 78.472 114.056 C 57.381 155.676, 72.942 204.352, 114.380 226.385 C 125.696 232.402, 145.387 236.615, 156.870 235.476 C 179.826 233.199, 196.611 225.359, 211.700 209.866 C 226.232 194.944, 233.991 177.296, 235.162 156.500 L 235.500 150.500 198.855 150.238 L 162.211 149.976 161.617 147.610 C 160.796 144.339, 156.647 141.884, 151.827 141.817 C 148.602 141.773, 147.155 142.384, 144.722 144.816 C 142.196 147.343, 141.667 148.673, 141.667 152.497 C 141.667 158.559, 144.874 162.006, 151.178 162.717 C 154.923 163.139, 156.078 162.805, 158.796 160.518 C 160.558 159.035, 162 157.187, 162 156.411 C 162 155.229, 166.698 155, 190.981 155 L 219.962 155 219.403 159.750 C 217.305 177.593, 207.089 195.588, 193.283 205.758 C 179.335 216.034, 169.151 219.455, 152.500 219.460 C 132.190 219.467, 118.602 213.838, 104.390 199.533 C 90.961 186.016, 85 171.435, 85 152.104 C 85 121.484, 103.440 96.882, 133.500 87.394 C 138.105 85.940, 142.522 85.500, 152.500 85.500 C 166.753 85.500, 171.278 86.514, 182.854 92.300 L 189.209 95.476 191.561 92.526 C 192.855 90.903, 194.721 88.072, 195.707 86.234 C 197.489 82.914, 197.485 82.882, 195.064 81.052 C 191.037 78.008, 177.791 72.975, 168.413 70.926 C 157.566 68.555, 146.341 68.595, 134.853 71.043 M 204.144 99.533 C 201.080 102.886, 199.310 105.643, 199.651 106.533 C 200.661 109.164, 202.754 108.096, 207.898 102.325 C 211.787 97.961, 212.701 96.345, 211.855 95.325 C 210.158 93.280, 209.561 93.606, 204.144 99.533 M 135 100.932 C 123.513 104.742, 119.483 107.151, 111.318 115.087 C 100.593 125.511, 95 138.682, 95 153.513 C 95 169.638, 100.482 182.595, 112.200 194.168 C 119.989 201.861, 135.856 208.960, 145.320 208.987 C 149.749 208.999, 150.113 208.818, 149.820 206.750 C 149.541 204.787, 148.691 204.400, 143.151 203.718 C 121.343 201.031, 104.745 184.883, 100.467 162.192 C 99.035 154.597, 99.041 153.137, 100.527 145.192 C 102.602 134.106, 106.748 126.234, 114.605 118.458 C 121.964 111.177, 131.501 106.200, 140.834 104.771 C 149.890 103.385, 150 103.341, 150 101.031 C 150 99.267, 149.375 99.007, 145.250 99.054 C 142.637 99.083, 138.025 99.929, 135 100.932 M 215.765 115.324 C 210.081 118.472, 208.657 120.548, 211.447 121.618 C 213.739 122.498, 225 116.052, 225 113.861 C 225 111.216, 222.454 111.619, 215.765 115.324 M 225 131.515 C 217.951 132.468, 217.500 132.679, 217.500 135.015 C 217.500 136.712, 217.976 137.390, 219 137.152 C 219.825 136.961, 223.135 136.426, 226.356 135.963 C 233.011 135.007, 233.285 134.854, 232.831 132.336 C 232.525 130.639, 231.933 130.577, 225 131.515" stroke="none" fill="#0077B6" fill-rule="evenodd"/>
</svg>