<svg xmlns="http://www.w3.org/2000/svg" width="300" height="300" viewBox="0 0 300 300" version="1.1">
	<path d="M 132.596 18.306 C 131.271 19.275, 130.558 21.909, 129.833 28.507 C 128.689 38.917, 127.893 40.769, 124.221 41.569 C 122.725 41.896, 120.271 42.627, 118.768 43.195 C 114.316 44.878, 113.463 44.150, 105.808 32.131 C 104.627 30.277, 102.296 28.187, 100.627 27.485 C 97.893 26.336, 97.284 26.444, 94.491 28.575 C 92.785 29.876, 89.296 31.866, 86.736 32.998 C 84.177 34.131, 81.839 35.451, 81.541 35.933 C 81.244 36.415, 78.412 38.263, 75.250 40.040 C 72.087 41.817, 69.169 43.772, 68.765 44.385 C 67.416 46.432, 67.977 49.891, 70.581 55.584 C 74.777 64.757, 74.792 67.025, 70.685 71.507 C 68.748 73.622, 66.158 75.505, 64.931 75.693 C 63.028 75.983, 57.853 74.132, 51.967 71.056 C 49.360 69.693, 44.558 68.966, 43.357 69.752 C 41.938 70.680, 27.549 94.752, 26.427 98.074 C 25.977 99.408, 25.711 101.043, 25.838 101.707 C 26.157 103.382, 31.666 108.758, 34.856 110.509 C 36.310 111.307, 38.581 112.883, 39.902 114.013 C 42.214 115.989, 42.258 116.271, 41.080 121.533 C 40.407 124.540, 39.439 127, 38.928 127 C 38.418 127, 38 127.581, 38 128.290 C 38 129.144, 35.039 130.033, 29.250 130.917 C 14.662 133.145, 16 130.984, 16 152.315 L 16 170.679 18.521 171.828 C 19.908 172.460, 23.621 173.215, 26.771 173.506 C 37.608 174.509, 38.708 174.868, 39.828 177.774 C 41.339 181.697, 42.149 188.331, 41.261 189.506 C 40.344 190.718, 33.335 196, 32.644 196 C 32.374 196, 30.769 197.385, 29.077 199.077 C 25.325 202.829, 25.174 205.890, 28.500 210.785 C 29.875 212.809, 31 215, 31 215.655 C 31 216.311, 32.013 218.119, 33.250 219.673 C 34.488 221.228, 36.554 224.598, 37.843 227.163 C 39.131 229.727, 41.162 232.743, 42.355 233.864 L 44.525 235.902 51.512 233.350 C 65.921 228.089, 65.297 228.115, 70.341 232.561 C 72.800 234.727, 74.854 237.021, 74.906 237.657 C 74.958 238.293, 73.702 241.707, 72.116 245.242 C 67.620 255.262, 66.970 261.317, 70.297 262.186 C 70.959 262.359, 77.736 266.067, 85.358 270.427 C 96.166 276.608, 99.578 278.131, 100.858 277.344 C 101.761 276.788, 104.537 273.627, 107.027 270.319 C 114.468 260.431, 114.240 260.571, 120.764 261.881 C 123.873 262.506, 126.841 263.441, 127.359 263.959 C 128.485 265.085, 129.857 272.876, 129.940 278.615 C 129.978 281.191, 130.775 283.716, 132.073 285.365 L 134.145 288 150.573 288 C 165.667 288, 167.162 287.838, 169 286 C 170.100 284.900, 171 283.015, 171 281.810 C 171 278.939, 173.004 268.085, 174.035 265.375 C 174.520 264.099, 176.073 263, 177.922 262.625 C 179.615 262.281, 182.289 261.733, 183.864 261.406 C 186.393 260.882, 187.241 261.426, 191.114 266.054 C 193.526 268.937, 196.909 272.897, 198.632 274.853 L 201.764 278.410 206.040 276.482 C 208.392 275.421, 211.932 273.398, 213.908 271.985 C 215.884 270.572, 219.975 268.140, 223 266.581 C 230.805 262.559, 234.001 260.119, 233.997 258.182 C 233.995 257.257, 232.716 253.350, 231.155 249.500 C 226.959 239.153, 226.726 237.618, 228.922 234.826 C 229.967 233.498, 232.344 231.591, 234.204 230.589 C 237.578 228.773, 237.608 228.776, 245.369 231.884 C 258.169 237.009, 257.755 237.197, 266.746 222.232 C 277.216 204.805, 277.730 202.306, 271.679 198.226 C 269.825 196.976, 266.917 194.726, 265.218 193.226 C 263.518 191.727, 261.359 190.031, 260.419 189.457 C 258.872 188.513, 258.836 187.917, 260.049 183.186 C 260.786 180.311, 262.179 177.243, 263.145 176.368 C 264.236 175.381, 268.235 174.411, 273.701 173.807 C 286.310 172.414, 286.087 172.814, 285.950 151.823 C 285.822 132.275, 286.039 132.698, 275.500 131.452 C 268.067 130.573, 262.220 128.343, 261.622 126.157 C 261.372 125.245, 260.892 122.459, 260.555 119.964 L 259.942 115.429 266.221 110.808 C 269.674 108.267, 273.520 105.096, 274.768 103.761 L 277.035 101.334 274.876 96.417 C 273.688 93.713, 272.383 91.275, 271.975 91 C 270.936 90.298, 266.154 82.052, 264.872 78.750 C 264.285 77.237, 263.398 76, 262.902 76 C 262.406 76, 262 75.343, 262 74.539 C 262 73.735, 261 72.147, 259.778 71.008 C 257.548 68.931, 253.968 68.958, 250.033 71.082 C 245.789 73.372, 238.473 76, 236.341 76 C 234.966 76, 233.659 75.251, 233.288 74.250 C 232.931 73.287, 231.539 71.537, 230.194 70.361 C 228.746 69.093, 227.750 67.133, 227.750 65.550 C 227.750 63.115, 228.487 61.166, 232.622 52.669 C 234.865 48.061, 234.340 45.361, 230.656 42.551 C 228.816 41.148, 227.052 40, 226.735 40 C 226.418 40, 222.531 37.750, 218.097 35 C 213.663 32.250, 209.577 30, 209.018 30 C 208.458 30, 208 29.586, 208 29.079 C 208 28.573, 206.655 27.864, 205.012 27.503 C 202.807 27.018, 201.235 27.409, 199.012 28.991 C 197.355 30.171, 196 31.696, 196 32.381 C 196 33.066, 194.650 34.919, 193 36.500 C 191.350 38.081, 190 39.889, 190 40.518 C 190 42.700, 185.654 44.199, 182.647 43.056 C 181.119 42.475, 178.801 42, 177.494 42 C 176.187 42, 174.790 41.469, 174.389 40.820 C 173.988 40.171, 172.891 34.944, 171.952 29.204 C 170.951 23.089, 169.676 18.409, 168.872 17.900 C 166.556 16.432, 134.670 16.790, 132.596 18.306 M 131.500 59.428 C 108.024 64.843, 88.542 77.617, 74.705 96.666 C 69.832 103.375, 62.743 118.625, 60.371 127.500 C 58.913 132.956, 58.500 138.029, 58.500 150.500 C 58.500 169.119, 59.739 175.136, 66.597 189.834 C 76.176 210.361, 90.627 224.818, 111.133 234.387 C 125.865 241.262, 131.872 242.500, 150.500 242.500 C 169.128 242.500, 175.135 241.262, 189.867 234.387 C 210.373 224.818, 224.824 210.361, 234.403 189.834 C 241.261 175.136, 242.500 169.119, 242.500 150.500 C 242.500 131.881, 241.261 125.864, 234.403 111.166 C 222.884 86.481, 202.412 69.005, 175.500 60.884 C 166.425 58.146, 140.743 57.296, 131.500 59.428" stroke="none" fill="#000000" fill-rule="evenodd"/>
</svg>