<svg xmlns="http://www.w3.org/2000/svg" width="300" height="300" viewBox="0 0 300 300" version="1.1">
	<path d="M 148.768 70.725 C 150.565 70.947, 153.265 70.943, 154.768 70.715 C 156.271 70.486, 154.800 70.304, 151.500 70.310 C 148.200 70.315, 146.971 70.502, 148.768 70.725 M 137.813 71.683 C 138.534 71.972, 139.397 71.936, 139.729 71.604 C 140.061 71.272, 139.471 71.036, 138.417 71.079 C 137.252 71.127, 137.015 71.364, 137.813 71.683 M 164.250 71.689 C 165.213 71.941, 166.787 71.941, 167.750 71.689 C 168.713 71.438, 167.925 71.232, 166 71.232 C 164.075 71.232, 163.287 71.438, 164.250 71.689 M 124 75 C 122.667 75.862, 122.667 75.969, 124 75.969 C 124.825 75.969, 126.175 75.533, 127 75 C 128.333 74.138, 128.333 74.031, 127 74.031 C 126.175 74.031, 124.825 74.467, 124 75 M 177 74.393 C 177 74.609, 177.698 75.054, 178.552 75.382 C 179.442 75.723, 179.843 75.555, 179.493 74.989 C 178.906 74.038, 177 73.583, 177 74.393 M 193.295 84.569 C 193.196 88.073, 193.234 88.111, 194.718 85.992 C 196.037 84.109, 196.051 83.622, 194.820 82.392 C 193.590 81.161, 193.383 81.455, 193.295 84.569 M 149.250 83.728 C 151.313 83.944, 154.688 83.944, 156.750 83.728 C 158.813 83.513, 157.125 83.336, 153 83.336 C 148.875 83.336, 147.188 83.513, 149.250 83.728 M 138.813 84.683 C 139.534 84.972, 140.397 84.936, 140.729 84.604 C 141.061 84.272, 140.471 84.036, 139.417 84.079 C 138.252 84.127, 138.015 84.364, 138.813 84.683 M 102.405 87.250 L 100.500 89.500 102.750 87.595 C 103.987 86.547, 105 85.535, 105 85.345 C 105 84.545, 104.195 85.136, 102.405 87.250 M 167.813 85.683 C 168.534 85.972, 169.397 85.936, 169.729 85.604 C 170.061 85.272, 169.471 85.036, 168.417 85.079 C 167.252 85.127, 167.015 85.364, 167.813 85.683 M 182 90.213 C 183.256 91.550, 189 93.953, 189 93.142 C 189 92.642, 188.213 92.007, 187.250 91.730 C 186.287 91.453, 184.600 90.879, 183.500 90.454 C 182.400 90.029, 181.725 89.921, 182 90.213 M 93.924 94.750 L 91.500 97.500 94.250 95.076 C 96.820 92.810, 97.459 92, 96.674 92 C 96.495 92, 95.258 93.237, 93.924 94.750 M 88.872 99.750 C 87.629 101.336, 87.664 101.371, 89.250 100.128 C 90.916 98.821, 91.445 98, 90.622 98 C 90.415 98, 89.627 98.787, 88.872 99.750 M 142.500 101 C 144.411 101.821, 144.415 101.863, 142.583 101.930 C 141.529 101.968, 140.946 102.279, 141.287 102.620 C 142.203 103.536, 149 102.069, 149 100.955 C 149 100.430, 147.088 100.032, 144.750 100.070 C 141.458 100.125, 140.951 100.334, 142.500 101 M 137.499 101.999 C 137.838 102.548, 137.303 102.926, 136.308 102.840 C 132.833 102.538, 130.887 103.008, 131.500 104 C 131.840 104.550, 131.566 105, 130.892 105 C 130.218 105, 129.911 105.245, 130.210 105.543 C 131.089 106.422, 138.924 103.640, 139.453 102.261 C 139.719 101.568, 139.250 101, 138.410 101 C 137.569 101, 137.160 101.449, 137.499 101.999 M 85.872 103.750 C 84.629 105.336, 84.664 105.371, 86.250 104.128 C 87.916 102.821, 88.445 102, 87.622 102 C 87.415 102, 86.627 102.787, 85.872 103.750 M 102.872 103.750 C 101.629 105.336, 101.664 105.371, 103.250 104.128 C 104.916 102.821, 105.445 102, 104.622 102 C 104.415 102, 103.627 102.787, 102.872 103.750 M 122.500 107.423 C 120.300 108.639, 118.444 110.166, 118.375 110.817 C 118.118 113.249, 117.951 113.471, 117.231 112.340 C 116.715 111.529, 115.648 111.906, 113.691 113.590 C 112.149 114.915, 111.364 116, 111.944 116 C 112.525 116, 113 116.470, 113 117.044 C 113 117.618, 112.393 117.955, 111.652 117.794 C 110.180 117.473, 106.657 121.370, 103.103 127.250 C 99.740 132.815, 102.802 132.101, 106.344 126.495 C 109.952 120.785, 116.991 114.022, 123.729 109.792 C 131.460 104.940, 130.465 103.021, 122.500 107.423 M 97.405 110.250 L 95.500 112.500 97.750 110.595 C 98.987 109.547, 100 108.535, 100 108.345 C 100 107.545, 99.195 108.136, 97.405 110.250 M 114.441 114.468 C 113.374 115.276, 113.007 115.951, 113.628 115.968 C 114.248 115.986, 115.315 115.325, 116 114.500 C 117.581 112.595, 116.935 112.582, 114.441 114.468 M 77.954 117.086 C 77.340 118.233, 77.026 119.360, 77.257 119.590 C 77.487 119.820, 78.189 118.882, 78.816 117.504 C 80.194 114.480, 79.523 114.154, 77.954 117.086 M 100 132.393 C 100 132.609, 100.675 133.045, 101.500 133.362 C 102.325 133.678, 103 133.501, 103 132.969 C 103 132.436, 102.325 132, 101.500 132 C 100.675 132, 100 132.177, 100 132.393 M 85.079 134.583 C 85.127 135.748, 85.364 135.985, 85.683 135.188 C 85.972 134.466, 85.936 133.603, 85.604 133.271 C 85.272 132.939, 85.036 133.529, 85.079 134.583 M 98.070 138.851 C 97.409 141.244, 97.123 143.456, 97.434 143.768 C 97.745 144.079, 98 143.782, 98 143.108 C 98 142.434, 98.450 142.160, 99 142.500 C 99.550 142.840, 100 142.218, 100 141.118 C 100 140.018, 100.450 138.840, 101 138.500 C 101.550 138.160, 102 137.432, 102 136.882 C 102 136.332, 101.588 136.136, 101.085 136.447 C 100.582 136.758, 99.968 136.447, 99.721 135.756 C 99.474 135.065, 98.731 136.458, 98.070 138.851 M 84.158 140 C 84.158 141.375, 84.385 141.938, 84.662 141.250 C 84.940 140.563, 84.940 139.438, 84.662 138.750 C 84.385 138.063, 84.158 138.625, 84.158 140 M 70.360 152 C 70.360 157.225, 70.529 159.363, 70.735 156.750 C 70.941 154.137, 70.941 149.863, 70.735 147.250 C 70.529 144.637, 70.360 146.775, 70.360 152 M 83.232 146 C 83.232 147.925, 83.438 148.713, 83.689 147.750 C 83.941 146.787, 83.941 145.213, 83.689 144.250 C 83.438 143.287, 83.232 144.075, 83.232 146 M 96.195 149.500 C 96.215 151.150, 96.439 151.704, 96.693 150.731 C 96.947 149.758, 96.930 148.408, 96.656 147.731 C 96.382 147.054, 96.175 147.850, 96.195 149.500 M 98.131 153.500 C 97.938 158.471, 97.610 159.920, 97 158.500 L 96.141 156.500 96.086 158.500 C 96.022 160.831, 97.618 163.715, 98.490 162.843 C 98.819 162.514, 98.934 158.702, 98.746 154.372 L 98.402 146.500 98.131 153.500 M 83.195 157.500 C 83.215 159.150, 83.439 159.704, 83.693 158.731 C 83.947 157.758, 83.930 156.408, 83.656 155.731 C 83.382 155.054, 83.175 155.850, 83.195 157.500 M 231.500 156 C 229.876 156.698, 229.817 156.873, 231.187 156.930 C 232.314 156.977, 233.016 158.078, 233.304 160.250 C 233.637 162.761, 233.720 162.533, 233.672 159.250 C 233.637 156.912, 233.584 155.032, 233.554 155.070 C 233.525 155.109, 232.600 155.527, 231.500 156 M 224.250 156.689 C 225.213 156.941, 226.787 156.941, 227.750 156.689 C 228.713 156.438, 227.925 156.232, 226 156.232 C 224.075 156.232, 223.287 156.438, 224.250 156.689 M 220.195 161.500 C 220.215 163.150, 220.439 163.704, 220.693 162.731 C 220.947 161.758, 220.930 160.408, 220.656 159.731 C 220.382 159.054, 220.175 159.850, 220.195 161.500 M 84.195 164.500 C 84.215 166.150, 84.439 166.704, 84.693 165.731 C 84.947 164.758, 84.930 163.408, 84.656 162.731 C 84.382 162.054, 84.175 162.850, 84.195 164.500 M 99.101 166.500 C 98.991 168.167, 98.808 168.251, 98 167 C 96.719 165.018, 96.752 165.991, 98.098 169.851 C 98.702 171.583, 99.575 173, 100.039 173 C 101.499 173, 102.213 170.963, 101.194 169.706 C 100.656 169.043, 99.994 167.600, 99.724 166.500 L 99.232 164.500 99.101 166.500 M 71.079 167.583 C 71.127 168.748, 71.364 168.985, 71.683 168.188 C 71.972 167.466, 71.936 166.603, 71.604 166.271 C 71.272 165.939, 71.036 166.529, 71.079 167.583 M 232.116 168.168 C 232.052 169.086, 231.741 170.661, 231.424 171.668 C 230.879 173.404, 230.909 173.407, 231.992 171.719 C 232.620 170.739, 232.931 169.164, 232.683 168.219 C 232.277 166.670, 232.221 166.665, 232.116 168.168 M 218.079 171.583 C 218.127 172.748, 218.364 172.985, 218.683 172.188 C 218.972 171.466, 218.936 170.603, 218.604 170.271 C 218.272 169.939, 218.036 170.529, 218.079 171.583 M 101.798 175.665 C 101.494 176.828, 101.633 178.391, 102.107 179.139 C 102.792 180.220, 102.973 180.231, 102.985 179.191 C 102.994 178.411, 103.505 178.186, 104.250 178.633 C 105.204 179.206, 105.236 179.042, 104.384 177.942 C 103.771 177.149, 103.062 175.837, 102.810 175.026 C 102.481 173.969, 102.194 174.150, 101.798 175.665 M 215.624 177.539 C 214.659 180.053, 214.943 180.702, 216.122 178.675 C 216.706 177.671, 216.973 176.639, 216.715 176.382 C 216.458 176.124, 215.966 176.645, 215.624 177.539 M 74 178.941 C 74 179.459, 74.445 180.157, 74.989 180.493 C 75.555 180.843, 75.723 180.442, 75.382 179.552 C 74.717 177.820, 74 177.503, 74 178.941 M 228.564 180.707 C 228.022 182.132, 228.136 182.247, 229.124 181.267 C 229.808 180.588, 230.115 179.781, 229.807 179.474 C 229.499 179.166, 228.940 179.721, 228.564 180.707 M 107.428 185.373 C 108.108 189.407, 115.842 197.873, 117.055 195.910 C 117.365 195.410, 118.491 195.712, 119.559 196.582 C 121.477 198.144, 121.476 198.156, 119.530 197.529 C 117.087 196.741, 117.521 197.186, 122.497 200.562 C 124.666 202.034, 127.466 203.298, 128.720 203.370 C 129.973 203.441, 130.999 203.785, 130.999 204.133 C 131 204.482, 131.787 204.993, 132.750 205.270 C 133.713 205.547, 135.400 206.092, 136.500 206.481 C 138.107 207.050, 138.205 206.977, 137 206.110 C 135.764 205.220, 135.939 205.008, 138 204.899 C 140.039 204.792, 140.131 204.684, 138.500 204.314 C 127.808 201.888, 116.723 194.834, 109.719 186 L 106.944 182.500 107.428 185.373 M 110.500 190 C 110.840 190.550, 111.316 191, 111.559 191 C 111.802 191, 112 190.550, 112 190 C 112 189.450, 111.523 189, 110.941 189 C 110.359 189, 110.160 189.450, 110.500 190 M 208.872 190.750 C 207.629 192.336, 207.664 192.371, 209.250 191.128 C 210.213 190.373, 211 189.585, 211 189.378 C 211 188.555, 210.179 189.084, 208.872 190.750 M 223.459 191.067 C 223.096 191.653, 223.014 192.348, 223.276 192.610 C 223.538 192.872, 224.019 192.392, 224.345 191.543 C 225.021 189.781, 224.445 189.471, 223.459 191.067 M 205.872 194.750 C 204.629 196.336, 204.664 196.371, 206.250 195.128 C 207.916 193.821, 208.445 193, 207.622 193 C 207.415 193, 206.627 193.787, 205.872 194.750 M 199.946 201.750 L 196.500 205.500 200.250 202.054 C 203.740 198.846, 204.460 198, 203.696 198 C 203.529 198, 201.842 199.688, 199.946 201.750 M 87 202.378 C 87 202.585, 87.787 203.373, 88.750 204.128 C 90.336 205.371, 90.371 205.336, 89.128 203.750 C 87.821 202.084, 87 201.555, 87 202.378 M 105 202.941 C 105 203.459, 105.445 204.157, 105.989 204.493 C 106.555 204.843, 106.723 204.442, 106.382 203.552 C 105.717 201.820, 105 201.503, 105 202.941 M 212.437 207.250 L 209.500 210.500 212.750 207.563 C 215.779 204.825, 216.460 204, 215.687 204 C 215.515 204, 214.052 205.463, 212.437 207.250 M 143.333 206.500 C 143.333 207.480, 144.315 208, 146.167 208 C 149.234 208, 149.973 206.587, 147.418 205.607 C 144.791 204.599, 143.333 204.917, 143.333 206.500 M 93 209.500 C 94.866 211.425, 96.617 213, 96.892 213 C 97.167 213, 95.866 211.425, 94 209.500 C 92.134 207.575, 90.383 206, 90.108 206 C 89.833 206, 91.134 207.575, 93 209.500 M 98 213.378 C 98 213.585, 98.787 214.373, 99.750 215.128 C 101.336 216.371, 101.371 216.336, 100.128 214.750 C 98.821 213.084, 98 212.555, 98 213.378 M 135.750 219.662 C 136.438 219.940, 137.563 219.940, 138.250 219.662 C 138.938 219.385, 138.375 219.158, 137 219.158 C 135.625 219.158, 135.063 219.385, 135.750 219.662 M 166.813 219.683 C 167.534 219.972, 168.397 219.936, 168.729 219.604 C 169.061 219.272, 168.471 219.036, 167.417 219.079 C 166.252 219.127, 166.015 219.364, 166.813 219.683 M 140.813 220.683 C 141.534 220.972, 142.397 220.936, 142.729 220.604 C 143.061 220.272, 142.471 220.036, 141.417 220.079 C 140.252 220.127, 140.015 220.364, 140.813 220.683 M 180 229 C 179.099 229.582, 178.975 229.975, 179.691 229.985 C 180.346 229.993, 181.160 229.550, 181.500 229 C 182.267 227.758, 181.921 227.758, 180 229 M 132.500 232 C 133.600 232.473, 135.175 232.859, 136 232.859 C 136.945 232.859, 136.761 232.542, 135.500 232 C 134.400 231.527, 132.825 231.141, 132 231.141 C 131.055 231.141, 131.239 231.458, 132.500 232 M 168.813 232.683 C 169.534 232.972, 170.397 232.936, 170.729 232.604 C 171.061 232.272, 170.471 232.036, 169.417 232.079 C 168.252 232.127, 168.015 232.364, 168.813 232.683 M 140.250 233.689 C 141.213 233.941, 142.787 233.941, 143.750 233.689 C 144.713 233.438, 143.925 233.232, 142 233.232 C 140.075 233.232, 139.287 233.438, 140.250 233.689 M 159.762 233.707 C 161.006 233.946, 162.806 233.937, 163.762 233.687 C 164.718 233.437, 163.700 233.241, 161.500 233.252 C 159.300 233.263, 158.518 233.468, 159.762 233.707" stroke="none" fill="#000000" fill-rule="evenodd"/>
</svg>