<svg xmlns="http://www.w3.org/2000/svg" width="300" height="300" viewBox="0 0 300 300" version="1.1">
	<path d="M 127.500 32.687 C 117.385 34.987, 110 37.425, 110 38.464 C 110 39.148, 111.121 40.918, 112.492 42.396 C 114.968 45.068, 115.012 45.075, 119.527 43.542 C 122.025 42.694, 124.924 42, 125.968 42 C 127.011 42, 128.087 41.212, 128.358 40.250 C 129.242 37.112, 130.167 31.997, 129.829 32.116 C 129.648 32.180, 128.600 32.437, 127.500 32.687 M 172.006 33.750 C 172.009 34.163, 172.464 36.131, 173.018 38.124 C 173.913 41.346, 174.472 41.820, 178.056 42.393 C 180.273 42.748, 182.995 43.592, 184.103 44.269 C 185.873 45.350, 186.488 45.090, 189.147 42.137 C 190.812 40.287, 191.797 38.404, 191.337 37.952 C 190.330 36.962, 176.273 33, 173.770 33 C 172.797 33, 172.003 33.337, 172.006 33.750 M 65.115 66.384 C 58.956 72.585, 58.107 73.844, 59.374 74.895 C 60.192 75.574, 62.282 76.170, 64.019 76.220 C 66.549 76.292, 67.954 75.434, 71.087 71.905 C 75.320 67.137, 75.709 65.595, 73.672 61.668 L 72.343 59.108 65.115 66.384 M 227.630 62.250 C 226.418 66.775, 227.088 68.670, 231.400 72.902 C 235.696 77.118, 235.887 77.192, 239.400 76.033 C 241.380 75.379, 243 74.530, 243 74.146 C 243 73.292, 229.696 60, 228.842 60 C 228.507 60, 227.962 61.013, 227.630 62.250 M 143 70.641 C 115.174 74.003, 89.965 92.043, 78.259 116.970 C 71.981 130.337, 70.594 136.782, 70.608 152.500 C 70.621 165.870, 71.717 172.886, 74.981 180.500 C 84.366 202.389, 98.070 217.422, 116.484 226.027 C 130.029 232.357, 135.539 233.500, 152.500 233.500 C 167.618 233.500, 173.455 232.514, 182.651 228.407 C 184.384 227.633, 186.048 227, 186.348 227 C 187.318 227, 199.214 219.797, 201.845 217.617 C 213.684 207.806, 220.952 198.615, 226.439 186.520 C 231 176.468, 232.771 170.473, 233.539 162.500 L 234.213 155.500 227.636 155.834 L 221.059 156.168 220.469 159.834 C 219.074 168.506, 217.497 173.946, 214.405 180.755 C 201.146 209.946, 168.849 226.239, 137.873 219.364 C 114.942 214.274, 96.232 198.252, 87.912 176.578 C 86.840 173.785, 85.290 167.075, 84.468 161.666 C 83.139 152.926, 83.140 150.792, 84.479 142.472 C 86.806 128.010, 91.246 118.386, 100.761 107.177 C 120.071 84.428, 153.585 77.507, 181.648 90.473 L 188.842 93.797 190.736 91.648 C 193.790 88.186, 196.126 84.013, 195.541 83.067 C 194.770 81.819, 186.375 77, 184.973 77 C 184.329 77, 182.384 76.373, 180.651 75.606 C 171.731 71.659, 153.966 69.316, 143 70.641 M 134.500 102.436 C 117.883 108.006, 109.155 115.498, 101.367 130.877 C 94.922 143.603, 94.427 160.958, 100.118 174.629 C 102.873 181.247, 109.070 190.470, 112.986 193.780 C 117.747 197.804, 126.273 202.837, 131.500 204.708 C 138.787 207.316, 149 208.732, 149 207.134 C 149 206.019, 147.624 205.593, 140.500 204.503 C 131.352 203.103, 120.220 197.216, 113.355 190.148 C 108.804 185.462, 103.287 177.020, 102.425 173.426 C 102.040 171.817, 101.224 169.868, 100.612 169.096 C 99.107 167.196, 99.107 140.804, 100.612 138.904 C 101.224 138.132, 102.043 136.150, 102.433 134.500 C 104.115 127.378, 112.743 117.146, 122.716 110.444 C 127.893 106.965, 138.314 103.013, 142.380 102.986 C 145.577 102.966, 149 101.878, 149 100.883 C 149 99.266, 141.588 100.060, 134.500 102.436 M 36.142 114.135 C 34.474 119.289, 32.033 130.366, 32.469 130.802 C 32.682 131.016, 34.243 130.886, 35.937 130.514 C 39.414 129.750, 40.208 128.562, 41.914 121.577 C 43.089 116.763, 43.051 116.590, 40.173 113.712 L 37.231 110.770 36.142 114.135 M 260.750 114.080 C 258.686 115.282, 258.562 117.933, 260.296 123.731 C 261.778 128.683, 262.527 129.512, 266.330 130.410 C 268.724 130.975, 269.084 130.803, 268.672 129.289 C 268.403 128.305, 267.419 124.237, 266.484 120.250 C 264.783 112.994, 264.022 112.175, 260.750 114.080 M 33.543 177.250 C 33.929 179.037, 35.128 183.377, 36.207 186.893 L 38.169 193.286 40.677 190.778 L 43.185 188.270 41.559 181.923 C 39.835 175.196, 38.901 174.040, 35.171 174.015 C 33.063 174.001, 32.908 174.310, 33.543 177.250 M 262.571 175.571 C 261.707 176.436, 261 177.921, 261 178.871 C 261 179.822, 260.610 181.028, 260.132 181.550 C 259.655 182.072, 258.999 183.923, 258.675 185.663 C 258.190 188.261, 258.514 189.107, 260.490 190.402 C 261.813 191.269, 263.120 191.615, 263.394 191.172 C 263.976 190.229, 268 175.902, 268 174.770 C 268 173.394, 264.186 173.957, 262.571 175.571 M 61.740 228.837 C 60.276 229.416, 61.155 230.699, 66.946 236.447 L 73.913 243.360 74.998 240.506 C 76.008 237.850, 75.754 237.319, 71.329 232.826 C 66.640 228.066, 65.202 227.467, 61.740 228.837 M 230.742 232.754 C 227.101 236.451, 226.190 238.009, 226.646 239.754 C 226.969 240.990, 227.531 242, 227.896 242 C 228.260 242, 231.395 239.138, 234.862 235.639 C 239.922 230.534, 240.838 229.152, 239.502 228.639 C 236.480 227.479, 235.470 227.954, 230.742 232.754 M 113.261 261.954 C 111.788 264.312, 111.924 264.407, 119.654 266.410 C 127.625 268.476, 129 268.424, 129 266.059 C 129 263.639, 128.352 263.243, 121.463 261.448 C 114.489 259.632, 114.720 259.618, 113.261 261.954 M 179.800 261.534 C 173.736 263.194, 173 263.695, 173 266.170 C 173 267.965, 173.429 268.142, 176.421 267.581 C 178.303 267.228, 182.171 266.248, 185.016 265.403 C 190.040 263.911, 190.139 263.811, 188.440 261.933 C 186.473 259.760, 186.312 259.752, 179.800 261.534" stroke="none" fill="#000000" fill-rule="evenodd"/>
</svg>