<svg xmlns="http://www.w3.org/2000/svg" width="300" height="300" viewBox="0 0 300 300" version="1.1">
	<path d="M 145.646 145.452 C 142.562 148.311, 142.029 154.169, 144.529 157.739 C 146.224 160.158, 152.220 162.217, 154.825 161.273 C 157.054 160.466, 164.293 154, 162.968 154 C 162.258 154, 162.251 153.399, 162.947 152.100 C 163.716 150.662, 163.603 150.062, 162.482 149.631 C 161.667 149.319, 161 148.460, 161 147.724 C 161 146.103, 154.306 143, 150.810 143 C 149.425 143, 147.101 144.104, 145.646 145.452 M 225.083 152.359 C 225.313 152.557, 226.850 153.021, 228.500 153.390 C 230.691 153.880, 231.095 153.787, 230 153.046 C 228.650 152.132, 224.080 151.494, 225.083 152.359" stroke="none" fill="#000000" fill-rule="evenodd"/>
</svg>