<svg xmlns="http://www.w3.org/2000/svg" width="300" height="300" viewBox="0 0 300 300" version="1.1">
	<path d="M 205.257 99.955 C 202.292 103.715, 201.462 106, 203.060 106 C 203.760 106, 204.066 105.733, 203.739 105.406 C 203.412 105.079, 204.687 103.457, 206.572 101.802 C 208.458 100.147, 210 98.389, 210 97.896 C 210 96.080, 207.435 97.193, 205.257 99.955 M 216.631 116.352 C 213.935 117.984, 213.203 118.864, 214.216 119.253 C 215.787 119.856, 222 116.383, 222 114.902 C 222 113.499, 220.816 113.819, 216.631 116.352 M 227.500 132.491 C 226.950 132.675, 225.244 133.103, 223.709 133.442 C 222.174 133.781, 221.165 134.458, 221.467 134.947 C 222.073 135.926, 228.915 134.373, 230.450 132.907 C 231.383 132.016, 229.655 131.773, 227.500 132.491 M 147.969 143.649 C 144.097 146.226, 143 148.095, 143 152.109 C 143 157.225, 143.777 158.833, 147.072 160.537 C 152.739 163.468, 158.374 161.515, 161.771 155.445 C 162.812 153.582, 164.079 153.507, 191.679 153.665 C 207.531 153.755, 223.200 153.980, 226.500 154.165 C 231.316 154.434, 232.500 154.204, 232.500 153 C 232.500 151.700, 227.813 151.465, 197.366 151.237 L 162.232 150.975 161.030 148.073 C 159.925 145.405, 157.835 144.062, 152.469 142.569 C 151.352 142.259, 149.327 142.744, 147.969 143.649" stroke="none" fill="#000000" fill-rule="evenodd"/>
</svg>